# xmcd CD database file
#
# Track frame offsets:
#	150
#	20640
#	48047
#	82025
#	106382
#	137210
#	173898
#	193838
#	213594
#	247629
#	274762
#
# Disc length: 4136 seconds
#
# Revision: 1
# Processed by: cddbd v1.5.2PL0 Copyright (c) Steve Scherf et al.
# Submitted via: CDex 1.79
#
DISCID=9810260b
DTITLE=Shalosh  - The Bell Garden
DYEAR=2014
DGENRE=Jazz
TTITLE0=Computer Crash
TTITLE1=Jerusalem State of Mind
TTITLE2=Leaving Maine
TTITLE3=Brain Damaged Pumpkin Pie
TTITLE4=Everything Passes, Even the Trees
TTITLE5=Elephant
TTITLE6=Pleasure and Disgrace
TTITLE7=Song for Daniel
TTITLE8=Get Gone
TTITLE9=Sandy
TTITLE10=Eulogy
EXTD=YEAR: 2014
EXTT0=
EXTT1=
EXTT2=
EXTT3=
EXTT4=
EXTT5=
EXTT6=
EXTT7=
EXTT8=
EXTT9=
EXTT10=
PLAYORDER=
